<?xml version="1.0" standalone="no"?><!DOCTYPE svg PUBLIC "-//W3C//DTD SVG 1.1//EN" "http://www.w3.org/Graphics/SVG/1.1/DTD/svg11.dtd"><svg xmlns:xlink="http://www.w3.org/1999/xlink" version="1.1" style="font-family:open sans;font-size:12px;" xmlns="http://www.w3.org/2000/svg" width="1040" height="410"><desc>Created with Highcharts 4.1.5</desc><defs><clipPath id="highcharts-63"><rect x="0" y="0" width="844" height="194"></rect></clipPath></defs><rect x="0" y="0" width="1040" height="410" strokeWidth="0" fill="#FFFFFF" class=" highcharts-background"></rect><g class="highcharts-grid" ></g><g class="highcharts-grid" ></g><g class="highcharts-grid" ><path fill="none" d="M 123 331.5 L 967 331.5" stroke="#D8D8D8" stroke-width="1"  opacity="1"></path><path fill="none" d="M 123 276.5 L 967 276.5" stroke="#D8D8D8" stroke-width="1"  opacity="1"></path><path fill="none" d="M 123 220.5 L 967 220.5" stroke="#D8D8D8" stroke-width="1"  opacity="1"></path><path fill="none" d="M 123 165.5 L 967 165.5" stroke="#D8D8D8" stroke-width="1"  opacity="1"></path></g><g class="highcharts-grid" ></g><g class="highcharts-axis" ><path fill="none" d="M 206.5 331 L 206.5 341" stroke="#C0D0E0" stroke-width="1" opacity="1"></path><path fill="none" d="M 291.5 331 L 291.5 341" stroke="#C0D0E0" stroke-width="1" opacity="1"></path><path fill="none" d="M 375.5 331 L 375.5 341" stroke="#C0D0E0" stroke-width="1" opacity="1"></path><path fill="none" d="M 460.5 331 L 460.5 341" stroke="#C0D0E0" stroke-width="1" opacity="1"></path><path fill="none" d="M 544.5 331 L 544.5 341" stroke="#C0D0E0" stroke-width="1" opacity="1"></path><path fill="none" d="M 628.5 331 L 628.5 341" stroke="#C0D0E0" stroke-width="1" opacity="1"></path><path fill="none" d="M 713.5 331 L 713.5 341" stroke="#C0D0E0" stroke-width="1" opacity="1"></path><path fill="none" d="M 797.5 331 L 797.5 341" stroke="#C0D0E0" stroke-width="1" opacity="1"></path><path fill="none" d="M 882.5 331 L 882.5 341" stroke="#C0D0E0" stroke-width="1" opacity="1"></path><path fill="none" d="M 966.5 331 L 966.5 341" stroke="#C0D0E0" stroke-width="1" opacity="1"></path><path fill="none" d="M 122.5 331 L 122.5 341" stroke="#C0D0E0" stroke-width="1" opacity="1"></path><path fill="none" d="M 123 331.5 L 967 331.5" stroke="#C0D0E0" stroke-width="1"  visibility="visible"></path></g><g class="highcharts-axis" ><path fill="none" d="M 206.5 137 L 206.5 127" stroke="#C0D0E0" stroke-width="1" opacity="1"></path><path fill="none" d="M 291.5 137 L 291.5 127" stroke="#C0D0E0" stroke-width="1" opacity="1"></path><path fill="none" d="M 375.5 137 L 375.5 127" stroke="#C0D0E0" stroke-width="1" opacity="1"></path><path fill="none" d="M 460.5 137 L 460.5 127" stroke="#C0D0E0" stroke-width="1" opacity="1"></path><path fill="none" d="M 544.5 137 L 544.5 127" stroke="#C0D0E0" stroke-width="1" opacity="1"></path><path fill="none" d="M 628.5 137 L 628.5 127" stroke="#C0D0E0" stroke-width="1" opacity="1"></path><path fill="none" d="M 713.5 137 L 713.5 127" stroke="#C0D0E0" stroke-width="1" opacity="1"></path><path fill="none" d="M 797.5 137 L 797.5 127" stroke="#C0D0E0" stroke-width="1" opacity="1"></path><path fill="none" d="M 882.5 137 L 882.5 127" stroke="#C0D0E0" stroke-width="1" opacity="1"></path><path fill="none" d="M 966.5 137 L 966.5 127" stroke="#C0D0E0" stroke-width="1" opacity="1"></path><path fill="none" d="M 122.5 137 L 122.5 127" stroke="#C0D0E0" stroke-width="1" opacity="1"></path><path fill="none" d="M 123 136.5 L 967 136.5" stroke="#C0D0E0" stroke-width="1"  visibility="visible"></path></g><g class="highcharts-axis" ><text x="1013"  text-anchor="middle" transform="translate(0,0) rotate(90 1013 234)" class=" highcharts-yaxis-title" style="color:#000000;fill:#000000;" visibility="visible" y="234"><tspan>Margarine consumed</tspan></text></g><g class="highcharts-axis" ><text x="27"  text-anchor="middle" transform="translate(0,0) rotate(270 27 234)" class=" highcharts-yaxis-title" style="color:#ba0f27;fill:#ba0f27;" visibility="visible" y="234"><tspan>Divorce rate in Maine</tspan></text></g><g class="highcharts-series-group" ><g class="highcharts-series" visibility="visible"  transform="translate(123,137) scale(1 1)" clip-path="url(#highcharts-63)"><path fill="none" d="M 42.2 22.171428571428578 C 42.2 22.171428571428578 92.84 46.005714285714284 126.60000000000001 55.428571428571416 C 160.35999999999999 64.85142857142856 177.24 59.86285714285714 211 69.28571428571428 C 244.76000000000005 78.70857142857143 261.64 99.77142857142859 295.40000000000003 102.54285714285714 C 329.16 105.3142857142857 346.0400000000001 102.54285714285714 379.8 105.3142857142857 C 413.56000000000006 108.08571428571426 430.43999999999994 138.57142857142856 464.2 138.57142857142856 C 497.96000000000004 138.57142857142856 514.84 121.94285714285715 548.6 121.94285714285715 C 582.36 121.94285714285715 599.2400000000001 122.49714285714286 633.0000000000001 124.71428571428571 C 666.7600000000001 126.93142857142855 683.6400000000001 128.5942857142857 717.4000000000001 133.0285714285714 C 751.1600000000001 137.46285714285713 801.8000000000001 146.88571428571427 801.8000000000001 146.88571428571427" stroke="#000000" stroke-width="2"  stroke-linejoin="round" stroke-linecap="round"></path></g><g class="highcharts-markers" visibility="visible"  transform="translate(123,137) scale(1 1)" clip-path="none"><path fill="#000000" d="M 801 142.88571428571427 C 806.328 142.88571428571427 806.328 150.88571428571427 801 150.88571428571427 C 795.672 150.88571428571427 795.672 142.88571428571427 801 142.88571428571427 Z"></path><path fill="#000000" d="M 717 129.0285714285714 C 722.328 129.0285714285714 722.328 137.0285714285714 717 137.0285714285714 C 711.672 137.0285714285714 711.672 129.0285714285714 717 129.0285714285714 Z"></path><path fill="#000000" d="M 633 120.71428571428571 C 638.328 120.71428571428571 638.328 128.71428571428572 633 128.71428571428572 C 627.672 128.71428571428572 627.672 120.71428571428571 633 120.71428571428571 Z"></path><path fill="#000000" d="M 548 117.94285714285715 C 553.328 117.94285714285715 553.328 125.94285714285715 548 125.94285714285715 C 542.672 125.94285714285715 542.672 117.94285714285715 548 117.94285714285715 Z"></path><path fill="#000000" d="M 464 134.57142857142856 C 469.328 134.57142857142856 469.328 142.57142857142856 464 142.57142857142856 C 458.672 142.57142857142856 458.672 134.57142857142856 464 134.57142857142856 Z"></path><path fill="#000000" d="M 379 101.3142857142857 C 384.328 101.3142857142857 384.328 109.3142857142857 379 109.3142857142857 C 373.672 109.3142857142857 373.672 101.3142857142857 379 101.3142857142857 Z"></path><path fill="#000000" d="M 295 98.54285714285714 C 300.328 98.54285714285714 300.328 106.54285714285714 295 106.54285714285714 C 289.672 106.54285714285714 289.672 98.54285714285714 295 98.54285714285714 Z"></path><path fill="#000000" d="M 211 65.28571428571428 C 216.328 65.28571428571428 216.328 73.28571428571428 211 73.28571428571428 C 205.672 73.28571428571428 205.672 65.28571428571428 211 65.28571428571428 Z"></path><path fill="#000000" d="M 126 51.428571428571416 C 131.328 51.428571428571416 131.328 59.428571428571416 126 59.428571428571416 C 120.672 59.428571428571416 120.672 51.428571428571416 126 51.428571428571416 Z"></path><path fill="#000000" d="M 42 18.171428571428578 C 47.328 18.171428571428578 47.328 26.171428571428578 42 26.171428571428578 C 36.672 26.171428571428578 36.672 18.171428571428578 42 18.171428571428578 Z"></path></g><g class="highcharts-series" visibility="visible"  transform="translate(123,137) scale(1 1)" clip-path="url(#highcharts-63)"><path fill="none" d="M 42.2 0 C 42.2 0 92.84 41.03846153846148 126.60000000000001 55.961538461538424 C 160.35999999999999 70.88461538461536 177.24 63.423076923077005 211 74.61538461538468 C 244.76000000000005 85.80769230769238 261.64 100.73076923076917 295.40000000000003 111.92307692307686 C 329.16 123.11538461538453 346.0400000000001 119.38461538461537 379.8 130.5769230769231 C 413.56000000000006 141.76923076923083 430.43999999999994 167.88461538461544 464.2 167.88461538461544 C 497.96000000000004 167.88461538461544 514.84 149.2307692307692 548.6 149.2307692307692 C 582.36 149.2307692307692 599.2400000000001 149.2307692307692 633.0000000000001 149.2307692307692 C 666.7600000000001 149.2307692307692 683.6400000000001 149.2307692307692 717.4000000000001 149.2307692307692 C 751.1600000000001 149.2307692307692 801.8000000000001 167.88461538461544 801.8000000000001 167.88461538461544" stroke="#ba0f27" stroke-width="2"  stroke-linejoin="round" stroke-linecap="round"></path></g><g class="highcharts-markers" visibility="visible"  transform="translate(123,137) scale(1 1)" clip-path="none"><path fill="#ba0f27" d="M 801 163.88461538461544 L 805 167.88461538461544 801 171.88461538461544 797 167.88461538461544 Z"></path><path fill="#ba0f27" d="M 717 145.2307692307692 L 721 149.2307692307692 717 153.2307692307692 713 149.2307692307692 Z"></path><path fill="#ba0f27" d="M 633 145.2307692307692 L 637 149.2307692307692 633 153.2307692307692 629 149.2307692307692 Z"></path><path fill="#ba0f27" d="M 548 145.2307692307692 L 552 149.2307692307692 548 153.2307692307692 544 149.2307692307692 Z"></path><path fill="#ba0f27" d="M 464 163.88461538461544 L 468 167.88461538461544 464 171.88461538461544 460 167.88461538461544 Z"></path><path fill="#ba0f27" d="M 379 126.5769230769231 L 383 130.5769230769231 379 134.5769230769231 375 130.5769230769231 Z"></path><path fill="#ba0f27" d="M 295 107.92307692307686 L 299 111.92307692307686 295 115.92307692307686 291 111.92307692307686 Z"></path><path fill="#ba0f27" d="M 211 70.61538461538468 L 215 74.61538461538468 211 78.61538461538468 207 74.61538461538468 Z"></path><path fill="#ba0f27" d="M 126 51.961538461538424 L 130 55.961538461538424 126 59.961538461538424 122 55.961538461538424 Z"></path><path fill="#ba0f27" d="M 42 -4 L 46 0 42 4 38 0 Z"></path></g></g><text x="520" text-anchor="middle" class="highcharts-title"  style="color:#777;font-size:18px;fill:#777;width:976px;" y="24"><tspan style="fill:#ba0f27;font-size:24px;font-weight:bold;font-family: 'lora'">Divorce rate in Maine</tspan><tspan style="font-family: 'lora'" x="520" dy="21"> correlates with </tspan><tspan style="fill:#000000;font-size:24px;font-weight:bold;font-family: 'lora'" x="520" dy="29">Per capita consumption of margarine</tspan></text><g class="highcharts-legend"  transform="translate(358,367)"><g ><g><g class="highcharts-legend-item"  transform="translate(8,3)"><path fill="none" d="M 0 11 L 16 11" stroke="#000000" stroke-width="2"></path><path fill="#000000" d="M 8 7 C 13.328 7 13.328 15 8 15 C 2.6719999999999997 15 2.6719999999999997 7 8 7 Z"></path><text x="21" style="color:#333333;font-size:12px;font-weight:bold;cursor:pointer;fill:#333333;" text-anchor="start"  y="15"><tspan>Margarine consumed</tspan></text></g><g class="highcharts-legend-item"  transform="translate(172,3)"><path fill="none" d="M 0 11 L 16 11" stroke="#ba0f27" stroke-width="2"></path><path fill="#ba0f27" d="M 8 7 L 12 11 8 15 4 11 Z"></path><text x="21" y="15" style="color:#333333;font-size:12px;font-weight:bold;cursor:pointer;fill:#333333;" text-anchor="start" ><tspan>Divorce rate in Maine</tspan></text></g></g></g></g><g class="highcharts-axis-labels highcharts-xaxis-labels" ><text x="165.2" style="color:#000000;cursor:default;font-size:11px;fill:#000000;width:74px;text-overflow:clip;" text-anchor="middle" transform="translate(0,0)" y="350" opacity="1">2000</text><text x="249.60000000000002" style="color:#000000;cursor:default;font-size:11px;fill:#000000;width:74px;text-overflow:clip;" text-anchor="middle" transform="translate(0,0)" y="350" opacity="1">2001</text><text x="334" style="color:#000000;cursor:default;font-size:11px;fill:#000000;width:74px;text-overflow:clip;" text-anchor="middle" transform="translate(0,0)" y="350" opacity="1">2002</text><text x="418.40000000000003" style="color:#000000;cursor:default;font-size:11px;fill:#000000;width:74px;text-overflow:clip;" text-anchor="middle" transform="translate(0,0)" y="350" opacity="1">2003</text><text x="502.8" style="color:#000000;cursor:default;font-size:11px;fill:#000000;width:74px;text-overflow:clip;" text-anchor="middle" transform="translate(0,0)" y="350" opacity="1">2004</text><text x="587.2" style="color:#000000;cursor:default;font-size:11px;fill:#000000;width:74px;text-overflow:clip;" text-anchor="middle" transform="translate(0,0)" y="350" opacity="1">2005</text><text x="671.6" style="color:#000000;cursor:default;font-size:11px;fill:#000000;width:74px;text-overflow:clip;" text-anchor="middle" transform="translate(0,0)" y="350" opacity="1">2006</text><text x="756" style="color:#000000;cursor:default;font-size:11px;fill:#000000;width:74px;text-overflow:clip;" text-anchor="middle" transform="translate(0,0)" y="350" opacity="1">2007</text><text x="840.4000000000001" style="color:#000000;cursor:default;font-size:11px;fill:#000000;width:74px;text-overflow:clip;" text-anchor="middle" transform="translate(0,0)" y="350" opacity="1">2008</text><text x="924.8000000000001" style="color:#000000;cursor:default;font-size:11px;fill:#000000;width:74px;text-overflow:clip;" text-anchor="middle" transform="translate(0,0)" y="350" opacity="1">2009</text></g><g class="highcharts-axis-labels highcharts-xaxis-labels" ><text x="165.2" style="color:#ba0f27;cursor:default;font-size:11px;fill:#ba0f27;width:74px;text-overflow:clip;" text-anchor="middle" transform="translate(0,0)" y="122" opacity="1">2000</text><text x="249.60000000000002" style="color:#ba0f27;cursor:default;font-size:11px;fill:#ba0f27;width:74px;text-overflow:clip;" text-anchor="middle" transform="translate(0,0)" y="122" opacity="1">2001</text><text x="334" style="color:#ba0f27;cursor:default;font-size:11px;fill:#ba0f27;width:74px;text-overflow:clip;" text-anchor="middle" transform="translate(0,0)" y="122" opacity="1">2002</text><text x="418.40000000000003" style="color:#ba0f27;cursor:default;font-size:11px;fill:#ba0f27;width:74px;text-overflow:clip;" text-anchor="middle" transform="translate(0,0)" y="122" opacity="1">2003</text><text x="502.8" style="color:#ba0f27;cursor:default;font-size:11px;fill:#ba0f27;width:74px;text-overflow:clip;" text-anchor="middle" transform="translate(0,0)" y="122" opacity="1">2004</text><text x="587.2" style="color:#ba0f27;cursor:default;font-size:11px;fill:#ba0f27;width:74px;text-overflow:clip;" text-anchor="middle" transform="translate(0,0)" y="122" opacity="1">2005</text><text x="671.6" style="color:#ba0f27;cursor:default;font-size:11px;fill:#ba0f27;width:74px;text-overflow:clip;" text-anchor="middle" transform="translate(0,0)" y="122" opacity="1">2006</text><text x="756" style="color:#ba0f27;cursor:default;font-size:11px;fill:#ba0f27;width:74px;text-overflow:clip;" text-anchor="middle" transform="translate(0,0)" y="122" opacity="1">2007</text><text x="840.4000000000001" style="color:#ba0f27;cursor:default;font-size:11px;fill:#ba0f27;width:74px;text-overflow:clip;" text-anchor="middle" transform="translate(0,0)" y="122" opacity="1">2008</text><text x="924.8000000000001" style="color:#ba0f27;cursor:default;font-size:11px;fill:#ba0f27;width:74px;text-overflow:clip;" text-anchor="middle" transform="translate(0,0)" y="122" opacity="1">2009</text></g><g class="highcharts-axis-labels highcharts-yaxis-labels" ><text x="982" style="color:#000000;cursor:default;font-size:11px;fill:#000000;width:333px;text-overflow:clip;" text-anchor="start" transform="translate(0,0)" y="334" opacity="1">2lbs</text><text x="982" style="color:#000000;cursor:default;font-size:11px;fill:#000000;width:333px;text-overflow:clip;" text-anchor="start" transform="translate(0,0)" y="279" opacity="1">4lbs</text><text x="982" style="color:#000000;cursor:default;font-size:11px;fill:#000000;width:333px;text-overflow:clip;" text-anchor="start" transform="translate(0,0)" y="223" opacity="1">6lbs</text><text x="982" style="color:#000000;cursor:default;font-size:11px;fill:#000000;width:333px;text-overflow:clip;" text-anchor="start" transform="translate(0,0)" y="168" opacity="1">8lbs</text></g><g class="highcharts-axis-labels highcharts-yaxis-labels" ><text x="108" style="color:#ba0f27;cursor:default;font-size:11px;fill:#ba0f27;width:333px;text-overflow:clip;" text-anchor="end" transform="translate(0,0)" y="334" opacity="1"><tspan>3.96 per 1,000</tspan></text><text x="108" style="color:#ba0f27;cursor:default;font-size:11px;fill:#ba0f27;width:333px;text-overflow:clip;" text-anchor="end" transform="translate(0,0)" y="272" opacity="1"><tspan>4.29 per 1,000</tspan></text><text x="108" style="color:#ba0f27;cursor:default;font-size:11px;fill:#ba0f27;width:333px;text-overflow:clip;" text-anchor="end" transform="translate(0,0)" y="211" opacity="1"><tspan>4.62 per 1,000</tspan></text><text x="108" style="color:#ba0f27;cursor:default;font-size:11px;fill:#ba0f27;width:333px;text-overflow:clip;" text-anchor="end" transform="translate(0,0)" y="149" opacity="1"><tspan>4.95 per 1,000</tspan></text></g><g class="highcharts-tooltip"  style="cursor:default;padding:0;white-space:nowrap;" transform="translate(0,-9999)"><path fill="none" d="M 3 0 L 13 0 C 16 0 16 0 16 3 L 16 13 C 16 16 16 16 13 16 L 3 16 C 0 16 0 16 0 13 L 0 3 C 0 0 0 0 3 0"  stroke="black" stroke-opacity="0.049999999999999996" stroke-width="5" transform="translate(1, 1)"></path><path fill="none" d="M 3 0 L 13 0 C 16 0 16 0 16 3 L 16 13 C 16 16 16 16 13 16 L 3 16 C 0 16 0 16 0 13 L 0 3 C 0 0 0 0 3 0"  stroke="black" stroke-opacity="0.09999999999999999" stroke-width="3" transform="translate(1, 1)"></path><path fill="none" d="M 3 0 L 13 0 C 16 0 16 0 16 3 L 16 13 C 16 16 16 16 13 16 L 3 16 C 0 16 0 16 0 13 L 0 3 C 0 0 0 0 3 0"  stroke="black" stroke-opacity="0.15" stroke-width="1" transform="translate(1, 1)"></path><path fill="rgb(249, 249, 249)" fill-opacity=" .85" d="M 3 0 L 13 0 C 16 0 16 0 16 3 L 16 13 C 16 16 16 16 13 16 L 3 16 C 0 16 0 16 0 13 L 0 3 C 0 0 0 0 3 0"></path><text x="8"  style="font-size:12px;color:#333333;fill:#333333;" transform="translate(0,20)"></text></g><text x="1030" text-anchor="end"  style="cursor:pointer;color:#909090;font-size:9px;fill:#909090;" y="405">tylervigen.com</text></svg>